<svg xmlns="http://www.w3.org/2000/svg" width="18" height="18" viewBox="0 0 24 24" fill="#ffffff">
  <path d="M12 0C5.373 0 0 5.373 0 12c0 3.314 1.343 6.314 3.515 8.485L.5 24h11.5c6.627 0 12-5.373 12-12S18.627 0 12 0Zm5.75 12.75a1.5 1.5 0 0 1-1.503 1.503c-.263 0-.5-.061-.719-.163-.921.667-2.19 1.101-3.6 1.15l.615-2.898 2.011.428a1.05 1.05 0 1 0 .106-.517l-2.245-.478a.264.264 0 0 0-.313.202l-.686 3.235c-1.428-.041-2.716-.476-3.646-1.15a1.502 1.502 0 1 1-1.622-2.478 4.02 4.02 0 0 1-.062-.694c0-2.033 2.367-3.684 5.287-3.684s5.287 1.65 5.287 3.684c0 .242-.024.478-.07.706.402.269.66.729.66 1.254Zm-8.812.202a1.05 1.05 0 1 0 2.1 0 1.05 1.05 0 0 0-2.1 0Zm5.774 1.72c-.583.386-1.386.616-2.222.616-.836 0-1.639-.23-2.222-.616a.201.201 0 0 1 .222-.335c.489.324 1.209.516 2 .516s1.511-.192 2-.516a.201.201 0 0 1 .222.335Zm-.234-.671a1.05 1.05 0 1 1 0-2.1 1.05 1.05 0 0 1 0 2.1Z"/>
</svg>